<svg width="357" height="395" viewBox="0 0 357 395" fill="none" xmlns="http://www.w3.org/2000/svg">
<path fill-rule="evenodd" clip-rule="evenodd" d="M0 0.535461H356.5V395H0V0.535461ZM34.2657 14.2343C34.2657 14.2343 212 14.2343 224 14.2343C236 14.2343 244.435 17.2925 245.041 30.1126C245.515 40.1397 245.248 69.9075 245.109 85.3809C245.07 89.6907 245.041 92.8916 245.041 94.248C245.041 100.475 249.089 109.192 264.033 109.192H326.3C338.131 109.192 342.178 117.287 342.178 127.25V355.035C342.178 366.535 339 375.535 320.5 376.631H43.5C23 375.535 15.2741 369 15.2741 355.035V33.5372C15.2741 18.9044 21.1896 14.2343 34.2657 14.2343Z" fill="white"/>
<circle cx="292.365" cy="64.0222" r="31.4451" fill="#1850A8"/>
<rect x="282.09" y="52.9808" width="4.35872" height="30.8799" rx="2.17936" transform="rotate(-32.566 282.09 52.9808)" fill="white"/>
<rect x="303.926" y="54.4984" width="4.35872" height="30.8799" rx="2.17936" transform="rotate(56.586 303.926 54.4984)" fill="white"/>
<rect x="293.398" y="49.2703" width="4.35872" height="30.8799" rx="2.17936" transform="rotate(12.3014 293.398 49.2703)" fill="white"/>
<rect x="307.793" y="65.9136" width="4.35872" height="30.8799" rx="2.17936" transform="rotate(102.056 307.793 65.9136)" fill="white"/>
</svg>
