<svg width="363" height="202" viewBox="0 0 363 202" fill="none" xmlns="http://www.w3.org/2000/svg">
<path d="M275.787 125.926C281.45 112.676 322.225 1 322.225 1H-17V69.7091C38.3105 89.2051 159.918 131.945 203.864 146.936C247.811 161.927 270.124 139.175 275.787 125.926Z" fill="#F5F8FB"/>
<path d="M-12 109.534C47.501 130.102 178.403 175.316 226.004 191.624C273.605 207.931 295.422 174.912 300.38 156.364L357.677 1" stroke="#A0AAB9"/>
<path d="M266.655 70.0836L271.907 51.686L277.159 70.0836L290.463 83.9685L271.907 79.2823L253 83.9685L266.655 70.0836Z" stroke="black" stroke-width="2"/>
<path d="M153.181 88.5345L150.414 79.7454L157.404 85.7496L166.434 87.8044L157.731 90.8404L151.372 97.7373L153.181 88.5345Z" stroke="#5A5A5A"/>
<path d="M85.0393 16.2002L83.4673 9.92687L88.1142 14.4249L94.3558 16.2409L88.1315 18.0054L83.3887 22.5728L85.0393 16.2002Z" stroke="#5A5A5A"/>
</svg>
