<svg width="113" height="89" viewBox="0 0 113 89" fill="none" xmlns="http://www.w3.org/2000/svg">
<path d="M113 32.5C113 63.7041 87.7041 89 56.5 89C25.2959 89 0 63.7041 0 32.5C0 32.5 0 32.5 58 32.5C113 32.5 113 32.5 113 32.5Z" fill="white"/>
<circle cx="57.4451" cy="31.4451" r="31.4451" fill="#1850A8"/>
<rect x="47.1709" y="20.4037" width="4.35872" height="30.8799" rx="2.17936" transform="rotate(-32.566 47.1709 20.4037)" fill="white"/>
<rect x="69.0063" y="21.9213" width="4.35872" height="30.8799" rx="2.17936" transform="rotate(56.586 69.0063 21.9213)" fill="white"/>
<rect x="58.4787" y="16.6932" width="4.35872" height="30.8799" rx="2.17936" transform="rotate(12.3014 58.4787 16.6932)" fill="white"/>
<rect x="72.8731" y="33.3365" width="4.35872" height="30.8799" rx="2.17936" transform="rotate(102.056 72.8731 33.3365)" fill="white"/>
</svg>
