<svg width="68" height="82" viewBox="0 0 68 82" fill="none" xmlns="http://www.w3.org/2000/svg">
<path d="M67 26.9752C64.2353 29.3413 57.9948 33.9945 47.2518 35.2564M47.2518 35.2564C36.5088 36.5183 27.1088 30.3928 24.739 26.9752C23.9491 25.9236 21.9743 22.4096 21.9743 16.7223C21.9743 8.44117 29.8736 3.31473 29.8736 3.31473C33.4282 0.948685 41.4854 -1.65397 45.2771 6.86381C49.0687 15.3816 47.9454 28.9469 47.2518 35.2564ZM47.2518 35.2564C43.6971 67.5924 -0.538578 70.7471 1.04131 70.7471M1.04131 70.7471C4.59597 70.0899 12.1003 66.015 13.6801 54.9735M1.04131 70.7471C5.91251 70.6157 15.8129 72.4822 16.4448 81" stroke="#3081FF" stroke-width="2"/>
</svg>
