<svg width="562" height="409" viewBox="0 0 562 409" fill="none" xmlns="http://www.w3.org/2000/svg">
<path fill-rule="evenodd" clip-rule="evenodd" d="M35 0.5H562V408.5H0.5V205.5V0.5H35ZM530 15H39.4999H35C21.8 15 18.4999 30 18.4999 37.5C18.3332 142.833 18.0999 357.7 18.4999 374.5C18.8999 391.3 33.3332 394.5 40.4999 394H344C353.2 394 356.237 389.856 357.5 388C365.667 376 382.9 350.9 386.5 346.5C390.1 342.1 395 341.333 397 341.5H528C544.8 341.5 549 328.167 549 321.5C549.167 231.833 549.4 48.9 549 34.5C548.6 20.1 536.167 15.5 530 15Z" fill="#1850A8"/>
</svg>
